<svg version="1.1" id="map" xmlns="http://www.w3.org/2000/svg" xmlns:xlink="http://www.w3.org/1999/xlink" x="0px" y="0px" viewBox="0 0 786.39 395.86" style="enable-background:new 0 0 786.39 395.86;" xml:space="preserve">
		<style type="text/css">
			.st0{fill:none;stroke:#AADAFF;stroke-width:8;stroke-linecap:round;stroke-linejoin:round;stroke-miterlimit:10;}
			.st1{fill:none;}
			.st2{fill:none;stroke:#008B6F;stroke-width:3;stroke-linecap:round;stroke-linejoin:round;}
			.st3{fill:none;stroke:#008B6F;stroke-width:3;}
			.st4{opacity:0.88;fill:#00853E;}
			.hightlight{fill:none;stroke:#F2FD36;stroke-width:3;stroke-linecap:round;stroke-linejoin:round;}
		</style>
		<path id="river" class="st0" d="M1.89-99.97c-9,6-11,9.5-10,17.5s-3,7,0.5,16.5s12,8.5,12,15.5s-1.5,6.5-9.5,18s-13,16-16.5,25.5
			s5,12.5,18,14.5s15,3,17.5,12s-10,11.5-2,24s18,22.5,29.5,31.5s27,10,35,20s0,14,8.5,24s7.5,10,17,21.5s12,12.5,23,14
			s28.5-7.5,29,0.5s-1,7.5,10.5,20s5.5,24,15.5,32s19.5,7,24.5,13s2.5,21,9,27.5s4.5,3,13,17s17.5,16,26.5,27s6.5,24,11.5,33.5
			s24.5,11.5,29.5,26s12,19.5,18,32s13,17,13,17"/>
		<path id="river_1_" class="st0" d="M791.39,77.53c0,0,0.5,7-4,18.5s6.5,10.5-1.5,19s-15.5,13.5-24.5,19.5s-25.5,10-36,18
			s-21.5,12.5-29,19.5s-5.5,13-16,19s-18.5,0.5-18,12s4,18,0,25s2,4-11.5,8s-23,12.5-32,14s-5.5-5-20-1s-25.5,10-33.5,18s-10,9-18,18
			s-10,30-22,43.5s-22,12-24,24.5s2.5,19,8,26s3,16,2,26.5s-5.5,18.5-2,30"/>
		<path class="st1" d="M-46.11-52.81c0,0,0.67,7.33,7.33,6.67s6.67-1.33,10.67,3.33s3.33,12.67,4.67,18.67s-10,17.33-4.67,20
			s14.67,6,19.33,7.33s5.33-1.33,14.67,2.67s8.67,3.33,14,13.33s4,17.33,6,23.33s3.33,6.67,10,4c6.67-2.67,13.33-3.33,17.33-8.67
			s6-10.67,17.33-14s19.33-5.33,32.67-16s17.33-17.33,30.67-20s16.67,5.33,30.67-2.67s24-12.67,32-17.33s17.33-8,17.33-8"/>
		<path class="st2" d="M795.14,70.78c-7.25,10-11,10-23.25,13.5s-23.5-1-27.5,3.75s-6,7.5-11.5,10.75s-15.25,19-20.5,24.5
			s-12,13.75-16.25,20.25s-4.75,10.25-8.25,14s-9.25,6.5-13.5,7s-4.25-0.75-9.25,1s-7.5,3-14.75,3.25s-12,4.25-16.75,5.75
			s-15.5,7-24.75,13.5s-10.25,8.75-14.25,13.75s-14.5,7.25-19,6.75s-4.75,0.75-10.5,2.75s-11.25,9-15.75,10.5s-3.75,2.25-10.75,5.75
			s-19,5.25-27.75,8.5s-15,4.5-20.75,4.25s-9.75-1.75-18,1s-10.25,4.75-16.5,7.25s-21.25,2.75-28.25,4.5s-10.75,3-19.5,7.25
			s-13.5,2.25-21.25,3s-12,2.5-23.25,6.5s-9.75,5.5-17,13.5s-8.75,14.5-8.5,22s-6.25,9-11.75,12.25s-9.5,4.75-15,7.5s-6,0.75-11.5,2
			s-10.5,7-15,10.25s-1,5.25-6,8.75s-12.5-1.25-17.25-1s-11,6.5-18.25,12s-8.75,8.25-8.75,8.25s-2.17,5.58-7.83,12.58
			c-5.67,7-11.33,7.33-13.33,13c-2,5.67-1.67,5.33-3.33,16.33s-8,12.67-11.67,20.67c-3.67,8-0.33,6.67-4,14
			c-3.67,7.33-19.33,18-19.33,18"/>
		<path class="st2" d="M-41.44,80.19c6.67,1,18.67,9,25,9s24-2.33,32.33-4.33s8.67-3.67,12.67-1.33s6.67,3.67,15,3.67
			s8.67-7,12.67-9.33c4-2.33,11.33,2.67,23.33,3c12,0.33,12,3.33,21.67,0.33s17.67,1,27,0.67c9.33-0.33,14,0,25-5s7-2.33,17.67-3
			c0,0,9.33-2,15-0.67c5.67,1.33,11,1.67,19.33,0.67c8.33-1,20.33-3,26-2.67c5.67,0.33,1,2.33,13.67,4c12.67,1.67,20,0.67,29.67,12.33
			c9.67,11.67,9.67,10,19.67,16.67c10,6.67,13.67,9,22.33,14.67c8.67,5.67,10.33,8.33,22,9c11.67,0.67,14.33-2.33,24.67,1.33
			c10.33,3.67,17.33,10.33,26.67,12.67c9.33,2.33,18,1.67,25.67,8.33c7.67,6.67,12.67,12.67,25,19.67c12.33,7,10.33,3.67,15,11
			c4.67,7.33,7.33,15.33,15.33,15c8-0.33,14-6.33,20.33-6.67c6.33-0.33,6.67,1.67,7,5c0.33,3.33,2,9.67-0.67,11.67
			c-2.67,2,0.67,7.33,3.33,12c2.67,4.67,6.67,12.33,9.67,20c3,7.67,4.33,13,3.33,19.33c-1,6.33-4,9-3.33,19.33
			c0.67,10.33,2,17-0.67,22.33c-2.67,5.33-8.33,13-13.67,18c-5.33,5-13.67,11.33-21.33,14c-7.67,2.67-17.33,8.67-23.33,13.33
			c-6,4.67-14,5-24.33,6.33c-10.33,1.33-16.33-0.67-25.67-0.67c-9.33,0-16.67-1.67-20,0.33c-3.33,2-7-3-13-1s-5,5.67-13.33,8.33
			c-8.33,2.67-5.67,4-12,7.67c-6.33,3.67-15.67,5.33-20.67,7.67c-5,2.33-8.67,5-17.67,8s-9,0.33-15.67,8.33
			c-6.67,8-18,21.33-23.67,26.33c0,0-2.67,3.67-8,8.33c-5.33,4.67-20.33,14.67-29,17.67c-8.67,3-12.67,1.33-17,4
			c-4.33,2.67-8.33,10.67-9.67,11"/>
		<path class="st2" d="M496.56,189.19c0,0-2-4.33,0-10c2-5.67-1.33-5.67-1.33-11.33c0-5.67,5-12.67,11-13.33c6-0.67,8.33,2,14.33,0.67
			c6-1.33,18.67-6,25.33-9s27.33-5,37.33-10.67s8.33-6,18.33-8.33c10-2.33,30.33-7.67,39.67-11.67c9.33-4,9.33-7,17.33-10.33
			c8-3.33,16.67-6.33,25.33-5.33s10.33,3,19.33,7.33c9,4.33,16.33,8.33,24,8.67c7.67,0.33,9-0.67,21,1c12,1.67,17.67,2,28.33,7.33
			c10.67,5.33,14.33,6.67,21,6.33c6.67-0.33,13.67-5,22.33-16.33s13-15.67,24.67-26.33c11.67-10.67,27.33-18.67,35.67-32
			c8.33-13.33,16-48,22-66.33s13-33.33,13-33.33"/>
		<path class="st2" d="M497.89,192.86c0,0,2.33,2,10,2c7.67,0,5,2,18.67,0.33c13.67-1.67,15-1.33,22.67-4.67c7.67-3.33,7.33-6,18-4.33
			c10.67,1.67,20,0.67,27.67,3.67s7.67,2.33,18.67,4.67s18.33,7.33,27,6.67c8.67-0.67,9.33,2,17.33-4.33c8-6.33,14.67-6.33,18.67-13
			c4-6.67,6-8.33,17.33-15.67c11.33-7.33,25.67-20,32.67-26.33c7-6.33,12.33-7.67,17-14.67c4.67-7,3.67-15,3.33-22.33
			c-0.33-7.33,1.33-10,3.33-19.33s-1.67-17,1-23c2.67-6,10-5,14.67-11.33s6-10.33,12.67-12.33c6.67-2,5.33-1.67,14.33,0
			s8,1.67,15.67,1.67c7.67,0,7.67-3.67,8.67,4s-0.33,9.67-1.67,19c-1.33,9.33-4.67,12.67-5.67,20.67s0,18,0.33,28
			c0.33,10-5,19-10.33,25s-23,20-29,28.33s-13,13-22,21s-35.33,38.33-42.67,48c-7.33,9.67-12.33,6.33-23.67,10.67
			c-11.33,4.33-18.67,9.33-25.33,15c-6.67,5.67-47.67,39.33-64.67,49.67c-17,10.33-18.67,10.67-33,16c-14.33,5.33-16.67,7-26.67,5.33
			c-10-1.67-9-6.67-19.33-7.33c-10.33-0.67-20.67-2.33-23.67-1.67"/>
		<path class="st2" d="M42.56,32.53c0,0,5.33,8.67,7,16.67s1.67,11.33,4,17c2.33,5.67-0.33,8.33,9.33,7.67
			c9.67-0.67,16-1.33,19.67-0.33c3.67,1,4,9.67,11.67,13s14.67,2,21,3.33c6.33,1.33,18.33,13,22.67,17.33
			c4.33,4.33,13.67,12.67,23.67,12.33s5.33-0.67,14,3c8.67,3.67,41.33,19.33,48,22c6.67,2.67,14.67,3,17,4
			c2.33,1,13.33,10.33,16.33,14.33s32.33,10,42,13s64.67,13,79.33,13c14.67,0,32-8,43.67-10s13-0.67,22-3c9-2.33,12-4.67,19.33-4
			c7.33,0.67,13.33,2.67,20-1.33c6.67-4,25-9.67,32-11.67c7-2,13.33-1,23.33-0.33s8.33-0.33,13.33-1s24.33-1,30.67,2
			c6.33,3,9.67,6.67,20.67,15s23.67,17,27.67,17s7.33-0.67,7.33-0.67"/>
		<path class="st2" d="M-88.77,252.19c0,0-0.33-0.33,17.67-4c18-3.67,21,1.33,35.33-3.67s21.67-7.33,32-13.33s18-15,30-15.67
			s17.67,2,24.33-3.67c6.67-5.67,5.67-3.33,9.33-8.67c3.67-5.33,2.33-5,7-8.67c4.67-3.67,4.67-6,15.33-6s24.33-2.67,30-6
			s13-6.67,20-10c7-3.33,9.33-1.67,20.67-6.67s13.67-6,17.67-5s13.67,3.33,22.67-0.67s6.33-4.33,14.67-5.33s19-7.67,20.33-8.33"/>
		<path class="st2" d="M240.56,148.53c0,0,5-5.33,9.67-12.33c4.67-7,2-9,9.33-12.33c7.33-3.33,9.33-8,16-11
			c6.67-3,14.33-8,19.33-15.33s2-9.33,9.33-13.67c7.33-4.33,20-7,24.33-14c4.33-7,5-12.33,9.67-18.67c4.67-6.33,7-11,8-17.33
			s12.67-15.67,14-18.33c1.33-2.67-5.33-4.67-9-7.67c-3.67-3-5-4,0.33-10.33c5.33-6.33,14-9.67,17.67-14c3.67-4.33,8.33-9,9.33-11
			s9.67-10.67,15-14.33c5.33-3.67,10.33-7.67,16-12.33c5.67-4.67,11-15.67,20.67-18c9.67-2.33,24.33-5.67,31.33-5.67s12.33,3,16,1
			c3.67-2,4.33-8,11.33-10.67s12-0.67,15.33-2.33c3.33-1.67,5-3.33,5-3.33"/>
		<path class="st2" d="M-8.11,66.86c0,0,17.33,2.67,25.67,0.67s11.67-7.33,20-9c8.33-1.67,9.67,1.33,18.33-0.67s16.33-3,24.67-2
			s8.67,1.33,16.33-1.67s31.33-6.33,53.33-7.67c22-1.33,30-2.33,33.67,1c3.67,3.33,2.33,11,8.67,12.67c6.33,1.67,12.33-3,15.67-1.33
			c3.33,1.67,6,4.67,9.33,4.67c3.33,0,4,0.67,11.33,4s12.33-0.67,25.33-1.67c13-1,34.33-3.33,43.67,2
			c9.33,5.33,17.67,8.33,25.33,10.33c7.67,2,11,0.67,14,3c3,2.33,12.33,17.67,17,17.67c4.67,0,11.33-2,16-2c4.67,0,10,6.33,16.67,7.67
			s9.33,2.67,16.33,4.67s26.67,11.67,30,17c3.33,5.33-1.67,3.33,6.33,8.33s10,8,17.67,10c7.67,2,15,4.67,19.33,4.67
			c4.33,0,0.67-0.67,11.67-0.67s11.67-0.67,18-3.67s10.67-0.33,21-1.33c10.33-1,16.33-1,20-3.33c3.67-2.33,16.67-4.33,22-4.67
			c5.33-0.33,13.33-5.67,20-16.67c6.67-11,10.67-15,16.33-23.33c5.67-8.33,5.67-8,10.67-17.33s10.33-14.67,15-20.67
			c4.67-6,7.33-12.67,17-15.67c9.67-3,13.33-4,17.67-8s11-5.67,19-11.67s10.33-10.67,18.67-12.67c8.33-2,11.33-3.67,15-8.67
			c3.67-5,11.33-11.67,22-16c10.67-4.33,18.33-7,17-18c-1.33-11-6.33-24.67,3-30c9.33-5.33,24-11.33,33.67-17.33
			c9.67-6,22.33-15.33,30.67-16s13-0.67,13-0.67"/>
		<path class="st2" d="M233.56,147.86c0,0,0.67,7.33,1.33,14.33s2,15.33,5,20c3,4.67,9,4,10.33,4c1.33,0,7.33,2.67,7,9
			c-0.33,6.33-1.67,8,4.33,10.67c6,2.67,10.33,3.67,12.67,8.33c2.33,4.67,0.33,11.33,8,15.33c7.67,4,6,10.67,7,14.33
			c1,3.67-1.67,3.67-1.33,12.33c0.33,8.67,2.33,15.67,0.33,20c-2,4.33-4.33,7.33-6.33,9.67c-2,2.33-1,8.33,1.67,11.67
			c2.67,3.33,10.33,6.33,7.33,11.67c-3,5.33-8,11.33-7.67,14c0.33,2.67,5.33,10.67,5.33,10.67"/>
		<path class="st2" d="M21.89,66.03c0,0,2,11,8,16s11.5,7,13,12s2,9.5,11,19s14,27,19,40s1,19.5,4.5,26.5s8.5,12.5,13,12.5
			s5.5,8.5,6.5,13s0,5-3,12.5s0,11.5-0.5,18s0,13.5,2,19.5s2.5,14.5,4.5,23.5s4.5,21.5,6,29s5.5,9.5,6,17s-5,18.5-8,23.5
			s3.5,13.5,2,19.5s-6,4.5-7,10s4,11.5,4.5,22s-0.5,15.5-0.5,23.5s0,9.5,4.5,15s5.5,17.5,5.5,17.5"/>
		<path class="st2" d="M94.89,54.19c5.67-1.67,21-13.33,30.67-17.33c9.67-4,29-11.67,39-13.67s21.33-2.33,30.33-4.33s9-2.67,18.33-8
			c9.33-5.33,26.33-15,35.67-13.33c9.33,1.67,12,4.33,21.33,6.33c9.33,2,5,5.67,16.33,8c11.33,2.33,16.33,6.67,23.67,10
			c7.33,3.33,32.67,3.67,35,3.67c2.33,0,7-1.67,7-1.67"/>
		<path class="st2" d="M375.23-23.14c0,0-2.67,5.33-4,11c-1.33,5.67,0.33,21.33,0.33,26.33s-2.67,7.67,0,11
			c2.67,3.33,4.67,7.33,8,9.67c3.33,2.33,2,2.33,1,7.67s-6,9.67-4.67,18s-1,20-0.67,25.67c0.33,5.67,2.67,15.33,8.33,17.67"/>
		<path class="st2" d="M341.89,45.53c1-0.67,0.33-7.33,7-9.33s8.33,0,14-3.67c5.67-3.67,8.67-7.33,8.67-7.33"/>
		<path class="st2" d="M360.56,14.19c0,0,4.33,4.67,8.67,9.67c4.33,5,6.67,10.67,12.33,11.33c5.67,0.67,7.33-1.33,14.67,1
			c7.33,2.33,16.67,10,26,12.67c9.33,2.67,22.33,9.33,25.67,11s8.74,2.44,13.7,2.72c4.97,0.28,10.97,1.61,15.97,3.95
			s4.33,5,10.67,0.67c6.33-4.33,13-2,16.67,1.33s1.33,10.33,11.67,18.67c10.33,8.33,16.33,13,22.33,18.67
			c6,5.67,5.33,14.67,5.67,16.67c0.33,2,7.33,0.33,11,3c3.67,2.67-1.33,5.67,3,8c4.33,2.33,10.33,4,15,6c4.67,2,11,6.33,14.67,8
			c3.67,1.67,5,0.33,8.67-0.33c3.67-0.67,9-1,15,6.33s15.33,14.67,20.33,17.67s6.67,6.33,5,9.33c-1.67,3-4,3.67-1.67,6.33
			c2.33,2.67,11.33,14.67,11.33,14.67"/>
		<path class="st2" d="M27.89,50.53c1.33-0.33,7.67-2.67,15.33-8.67s7.33-6.67,14.33-12s12-9.67,21.33-15s9-9.33,19.33-13.33
			s22.67-8.67,29.33-13.67c6.67-5,10.67-3.33,18.67-6.67s10.33-3.33,21.67-8.33s9.67-5.33,23-5.33s30.67-8.33,41-10.67
			s52.33-11.67,72-21s47.33-24.33,58-26.67c10.67-2.33,14.67-2.33,28.67-2.67s14.67-2,30.33-0.67c15.67,1.33,24.67-2,32.33-1
			c7.67,1,13.67,4.67,25,1c11.33-3.67,20-9,33.33-14.33c13.33-5.33,30.33-11.67,43.33-19c13-7.33,21-16.33,31.33-17.33
			c10.33-1,18.67,1.33,30.67-4.33c12-5.67,16-6,26-3.67c10,2.33,10.33,11,14.67,11.67"/>
		<path class="st2" d="M197.89-32.14c0,0-4.67,5.33-17.67,10.67s-17,8.67-28.67,9c-11.67,0.33-15-1.33-19,1s-23,14-29.33,19.33
			s-8.33,10-20,13.67s-23.33,1.67-28,4s-14,9.33-21,10.67c-7,1.33-13.67-6-20.67-5c-7,1-14,2-20,6s-3,10.67-12,12.33
			c-9,1.67-12-0.33-18.33,5s-11.67,10.67-18.33,11.33"/>
		<path class="st2" d="M220.89,451.86c0,0,16.67-0.67,26.67-9c10-8.33,9-9.33,23.33-18.33s31-20.33,37-27.67c6-7.33,11-10.67,18-14
			c7-3.33,15.33-5.33,25.33-10.33s14.67-8.67,27.33-8.33c12.67,0.33,36,4.67,48,4.33s20-3,32.67-9c12.67-6,21-12,25.67-15.33
			c4.67-3.33,15-17.67,21-26.33c6-8.67,9.33-18,14-20.33s5.33,2.67,11-4s8.67-10.67,12-15.33c3.33-4.67,2.67-10,2.67-10"/>
		<path class="st2" d="M446.56,274.53c0,0,0.67,9,4,12.67c3.33,3.67,3,6,3.67,9.67c0.67,3.67,4.67,5,10,9c5.33,4,10,4,9.67,12.67
			s-0.67,21-0.33,27.33c0.33,6.33,0.67,12,1.67,16s-7,15.67-5.33,22.67s2.67,17,4.33,25c1.67,8,4.33,19,0.67,23.33
			c-3.67,4.33-9,3-6.67,8c2.33,5,5,14,3.33,20c-1.67,6-1,11-1,12.33"/>
		<path class="st2" d="M454.23,298.86c0,0-3.33,0-5,3.67c-1.67,3.67-2.33,7.33-4.33,9.67c-2,2.33,0.33,7,2.33,10.33s-5,3-5,10
			s0.33,10,3,18.33c2.67,8.33,0,12-1.33,18.67s-0.33,20.33,0,28s2.33,5,4.33,8.33c2,3.33,4.67,16.67,1.67,25.67s-9,14-14.33,22.33
			c-5.33,8.33-16,17.33-19.33,24.33c-3.33,7-8,14.67-8,14.67"/>
		<path class="st2" d="M445.23,364.86c4,3.33,9.33,5.33,13,8.33c3.67,3,6.33,4.67,8.33,5c2,0.33,4,2.33,4,2.33"/>
		<path class="st2" d="M475.23,361.86c0,0,7.67-7.67,11.67-20"/>
		<path class="st2" d="M496.89,330.86c0,0-1.67-3.33-6-12.33s-6.67-9.33-3.33-16c3.33-6.67,5.33-13.67,9.33-15s6-1.67,8.33-3.67
			c2.33-2,5.67-2,5.67-2"/>
		<path class="st2" d="M511.56,291.53c0,0,3-2,9.33-6.33c6.33-4.33,12-11.33,16.33-12.67c4.33-1.33,7.67-1.67,11-6
			c3.33-4.33,5.33-7,12.33-10.33c7-3.33,17.33-10,23.33-13s4-2.67,14.67-3.67c10.67-1,13.67,1.33,19-3c5.33-4.33,3.67-7.33,9-7
			c5.33,0.33,2.67,3.33,9.33,0.67c6.67-2.67,12.33-2.33,17-3.67s2-7.67,4.33-14.67c2.33-7,4-18,4-18"/>
		<path class="st2" d="M483.23-157.47c0,0,4.33,9.33,7.67,17.67c3.33,8.33,4.33,13.33,6,22s1,9.67,5.67,19
			c4.67,9.33,5.33,15.67,13,23.33c7.67,7.67,4,16.33,17,25s18.33,16,21,22c2.67,6,3.67,18,6,27c2.33,9,6.33,12,10,24.67
			c3.67,12.67,8,33,12.67,40.67c4.67,7.67,14.67,28.33,17,36.33c2.33,8,8.67,24.67,8.67,24.67s-8.33,5.33-11.67,11.67
			c-3.33,6.33-3.33,6.67-5,11c-1.67,4.33-4.67,4.33-7.67,7.67c-3,3.33-8,6.67-7,12.67s9.67,9.67,10,18c0.33,8.33,1.67,13.33-3.33,17
			c-5,3.67-5.67,6.67-5.67,14c0,7.33,1,13,3,17.33c2,4.33,3.33,9,3.33,9"/>
		<path class="st2" d="M493.23-99.81c0,0,4.67,3.33,9.33,4.33c4.67,1,3.67,1.67,9.67,3c6,1.33,16,2.33,23.67,3.67
			c7.67,1.33,11.67,2,15.67,5.67c4,3.67,12.67,5,14.67,13s0.33,11,4.67,20s7,19.33,10.33,26.67c3.33,7.33,3,10.67,2.33,15.67
			c-0.67,5,4.67,8,3.67,12.67s-2.67,3.33,1.67,10s5,11.33,10.33,17c5.33,5.67,13.33,8.67,14.33,14.67s4.67,8.33,6.67,17.33
			s2.67,8.33,5,14c2.33,5.67,1,5.33,4.33,9.67c3.33,4.33,1.67,5.67,2.67,9.67s4,3,3.67,7.67c-0.33,4.67-3,15.33,0.67,20.67
			c3.67,5.33,2.67,3.67,8.33,7.33c5.67,3.67,7,9,9.33,11.67c2.33,2.67,5,4.67,5,4.67"/>
		<path class="st2" d="M646.89,226.19c0,0,0.33-6.33,1.33-15c1-8.67,5.67-14.33,6-24c0.33-9.67,0.33-20.33,2.33-27.33
			s1.67-8.33,4-15.33c2.33-7,1.67-13.33,3.67-21s2.67-10.67-0.33-22.33s-10-19-6.67-33c3.33-14,6-20,2.67-26s-9-4-5.67-12
			c3.33-8,6.33-14,3-21.67c-3.33-7.67-3-11-4.33-17.33s-2.67-6.67,0-12s-1.67-13.33-4-21s-11-12-7-17s4-6.33,0.67-13
			c-3.33-6.67,0-9-3-16.33c-3-7.33-4.33-7.33-4.67-13.67c-0.33-6.33-2.33-11.67-1.33-13.67s-0.33-7.67,0-12.33
			c0.33-4.67,6-14.33,6-14.33"/>
		<path class="st3" d="M551.56-83.14c0,0,0-0.67,7-6c7-5.33,5.33-6,11.67-10.33c6.33-4.33,5.67-3,15.33-5.33
			c9.67-2.33,13-2.33,16.67-10.67c3.67-8.33,2-9,9-12.67c7-3.67,7-6.67,11.67-9.33s17-9.67,19.67,1c2,6,4,7.67,7,4.33
			c3-3.33,3-11,13.67-8.67c10.67,2.33,11.67,5,17.67,5s3.67-4,9.33,1.67c5.67,5.67,20.33,6.33,23.67,8.67s8.67,2.33,14,2.67
			c5.33,0.33,9.33-0.67,17.67-3.33c8.33-2.67,18-4.33,24-3.33s9.33,1,14.67,5.33c5.33,4.33,11,6.33,20.67,10.67s21,8,34,11
			s18.67,1.67,23.67,6.67s3.67,12,13,13c9.33,1,8.67-1.67,14-4.33"/>
		<path class="st3" d="M615.23-137.14c0,0-2.67-3.67-5-8.33c-2.33-4.67-1.33-11.67-1.33-18s-2.67-10.67,2.33-16.33
			c5-5.67,3.67-8.33,2-16.67"/>
		<path class="st3" d="M639.73-166.97c0,0,3-0.83,3.17-4.5c0.31-6.73-3.67-12-2.67-17s5.33-5.33,6.67-11.67
			c1.33-6.33,0-7.67,4.67-10.67"/>
		<path class="st2" d="M655.23,167.86c0,0-3.67,5.67-8,8c-4.33,2.33-6,6-6,8s-2.33,9.67-1.33,13.67s3.33,5,1.33,7.67
			c-2,2.67-5,2.67-3,7.33s0,5,5,6.33c5,1.33,10,1.67,16,3c6,1.33,7.33,1.33,10.33,5c3,3.67,3.67,10,4.33,15.33
			c0.67,5.33,0,8.33,3.67,13c3.67,4.67,5.67,6.33,10,12c4.33,5.67,5.33,12.33,6.33,18c1,5.67,14,17.67,20,24.67s19.67,9.33,28,14.67
			s20.33,25,27.33,30.33c7,5.33,40.33,31.33,45.33,38.67s25.67,24.67,25.67,24.67"/>
		<path class="st2" d="M517.23,233.53c0,0,4.33,5.67,16.33,11s21.33,10,29.33,10.33c8,0.33,4.67-2,11.33,3.67
			c6.67,5.67,9.67,12,12.33,20c2.67,8,1.67,12.67,8,13c6.33,0.33,22.67,2.67,27.67,4.33c5,1.67,11,9,21.67,12s20.33,7.33,26.33,9.67
			s29,8,38.67,8.67c9.67,0.67,6.33,1.67,15.67,10c9.33,8.33,16.67,22.33,23.33,25.33s11.33,4,15.33,7.33c4,3.33,13.67,11,16,14.33
			c2.33,3.33,11,24.67,18.33,28.33c7.33,3.67,45.67,24,45.67,24"/>
		<path class="st2" d="M633.56,200.86c0,0-7.33,2.67-11.67,4.67s-3.33,2.67-3,5.67s-5,5-6.33,7.33c-1.33,2.33-1.33,3-5,5.67
			c-3.67,2.67-5,5.33-8.67,8.67c-3.67,3.33-9.67,7.67-9.67,7.67"/>
		<path class="st2" d="M531.23,330.53c0,0,0.33,0.33,4-5.33c3.67-5.67,6-2.33,6-8.67s1.67-11,8.33-19.33c6.67-8.33,9.33-12,13.33-16
			s14.33-6,18.33-8.67s9.67,2,16.33,0c6.67-2,18-6.67,25.33-10.67s24.67-17,32.33-17.33c7.67-0.33,10,0.67,13-1s4-5,7.67-5.67
			c3.67-0.67,10.67,1,15,0s10.33,1.67,13.33-1"/>
		<path class="st2" d="M597.56,272.53c0,0-12.67,13.33-18,18c-5.33,4.67-17.67,16-23.33,20.67c-5.67,4.67-19,15.33-20.33,19.67"/>
		<path class="st2" d="M554.89,327.19c0,0,1.67,2,10.67,7s19.67,13,21.33,12.67c1.67-0.33,0-1.67,4.33-1.33c4.33,0.33,15,2,24.33,7.67
			c9.33,5.67,18.67,12,25.33,14.33s7.67,0.33,15,1s21.67,4.33,27,7s6.67,5,9.33,4.67c2.67-0.33,5,3,10.67,5s12.33,2.67,19.67,7.33
			c7.33,4.67,7.33,7.67,17.67,14.67c10.33,7,33.33,17,42,21c8.67,4,12.33,8.33,22.33,7.67c10-0.67,7,0,14.67,1.67
			c7.67,1.67,18.67-1.33,20.33-1.33"/>
		<path class="st2" d="M901.89-45.47c0,0,1,3.67-4.67,8.33c-5.67,4.67-13,12.33-13.33,18.67s4,12.67,4.33,19.33
			c0.33,6.67-2.67,14-5,24.33c-2.33,10.33-5.67,16-10.67,23.33s-17.33,13.67-23.33,20s-9,9.67-16,16.67s-14,13-15.67,17
			c-1.67,4-5,23.67-6.67,31.67s-1.67,28-4,38.33c-2.33,10.33-6,19.33-4.33,28.67c1.67,9.33,1,23.33,2.67,30
			c1.67,6.67,3.33-2.33,3,14.33c-0.33,16.67-4,35-1.67,41c2.33,6,6.67,7,3,14.33c-3.67,7.33-6.67,15-12,24.67
			c-5.33,9.67-8.67,18.33-8.67,18.33"/>
		<path class="st2" d="M677.56,216.53c0,0,4.67,8,12.33,18.33c7.67,10.33,22.33,27,25.33,30s11,3.67,17,7
			c6,3.33,10.33,9.67,14.67,13.33c4.33,3.67,6.67,11,10.67,19s13.33,23,17.67,27.67c4.33,4.67,16,12.33,18.33,17.33
			c2.33,5-1,7.33,5.33,13c6.33,5.67,29.33,24,37.33,31.67c8,7.67,39,33,42.67,38s16.33,14.67,16.33,14.67"/>
		<path class="st2" d="M794.23,72.19c0,0,9.33,8,14.33,10.67c5,2.67,8.33,6,8.67,12c0.33,6-0.33,16-3.67,18.67
			c-3.33,2.67-16,5.33-23.33,9.67c-7.33,4.33-21.67,11.33-24,14c-2.33,2.67-5.67,6.33-10.33,6.67c-4.67,0.33-12.33,15.33-27.67,25.67
			c-15.33,10.33-31.67,18.33-35.67,23.67c-4,5.33-13.67,15.67-14,21.33c-0.33,5.67-5.33,13.33-10,19
			c-4.67,5.67-15.33,11.33-15.33,11.33"/>
		<path class="st2" d="M668.89,225.86c0,0-1-8.33-0.33-15c0.67-6.67-2.67-10.33-5-12.33c-2.33-2,0.33-6,0.33-6"/>
		<path class="st2" d="M668.23,204.86c0,0,4.33,0.67,8.33,2c4,1.33,3,2.67,8.33,2c5.33-0.67,12.67-2,19.67-3s10-3,13.33-1
			s10.33,4,10.33,4"/>
		<path class="st2" d="M679.23,180.19c0,0,8.67,6,12.67,8s6.67,2,10.33,2c3.67,0,7.33,1,9.33,3s2.67,6.67,3.33,8.33s3,3.33,3,3.33"/>
		<path class="st2" d="M684.89,208.86c0,0,6.33,4.33,11.33,5.67s11.67,3.33,13,3.67c1.33,0.33,8.33,1.67,8.33,1.67"/>
		<path class="st2" d="M764.23,171.86c0,0,0.33-4.33,3.33-12c3-7.67,6-12.33,14.33-16.33s11.67-5,15.67-11.67
			c4-6.67,11.67-11.67,12.33-12.67"/>
		<path class="st2" d="M685.23,160.53c0,0-1.67,1.67,3.33,1.33c5-0.33,10.33-4,14.33-7.67c4-3.67,11.67-6.67,14.33-8
			c2.67-1.33,6-2,6-2"/>
		<path class="st2" d="M710.56,125.86c0,0,14.33,11.67,11,21"/>
		<path class="st2" d="M731.56,137.86c0,0,7-5.33,11.33-6.33c9.37-2.16,13.67-0.67,18.33-5.33c4.67-4.67,11.67-14.67,12.67-17
			c1-2.33,0.67-13.33,2.67-17.33s6-10.33,6-10.33"/>
		<path class="st2" d="M892.89-197.47c0,0,1.33,4.67-11.33,10c-12.67,5.33-14,18.33-21,27.67c-7,9.33-5.33,10.67-16.33,15.67
			s-13,2.67-13,11.67s8.33,16,8.33,24.33s-3,7-0.67,13s8,8.33,5,14.33s-6.33,11.67-9.67,18.33c-3.33,6.67-5,17-5,23.67
			s-0.33,11.33,2,16.67c2.33,5.33-1,10.33-3.67,21.33c-2.67,11,1.33,10-4.33,16.33c-5.67,6.33-12,12.33-16.67,18.33
			c-4.67,6-4.33,10-5.33,14.33s-3.33,13-5.33,17.67c-2,4.67-3.33,8.33-0.33,15.33s4,7.67,9.33,7c5.33-0.67,6.67,2.33,12.67-1
			c6-3.33,3.33-3,12-5.67c8.67-2.67,5.33-5.33,18.33-0.33s17,8.67,31,9.33s24.33,0,36.33,2.67c12,2.67,9.33,6.67,21.67,6.33
			s30.67-1.67,38.67-1.67"/>
		<path class="st2" d="M795.89,65.86c0,0,1.33,1.67,6.67-4c5.33-5.67,4.33-3.33,8-11c3.67-7.67,22-23.67,27-31.33
			s25-27.33,31.67-36.67c6.67-9.33,17.67-22.33,23.67-25.33s10.67-1.67,17-7s4-11.67,10.67-16.33c6.67-4.67,19.67-12,22.67-15.33"/>
		<path class="st2" d="M825.56,12.19c0,0,3-0.33,10.67-7.33c7.67-7,8.33-8.33,12.67-12s2.67-12.33,7.33-17.33c4.67-5,14-3.67,18.33-10
			c4.33-6.33,8.33-14.33,16.33-19.67s18.67-8.67,22.67-11.33s13.33-11.33,14.67-12.67"/>
		<path class="st3" d="M774.23-142.47c0,0,5.67-1,12-2c6.33-1,15.33,0.33,24.33,0.67c9,0.33,25.67,1.67,34.67,1
			c9-0.67,20.67-1.67,31.67-2.33c11-0.67,25.67-2.33,34.67-6c9-3.67,10.67-3.67,13-6"/>
		<path class="st3" d="M862.89-95.81c0,0,2.33,3,15.67-5.33c13.33-8.33,16.33-14.67,24.67-21c8.33-6.33,10.67-14.67,18.33-17.67"/>
		<path class="st3" d="M840.89-149.47c0,0,3.67-4.67-1.67-12.33c-5.33-7.67-1.67-7.33-8.33-17.33s-9.67-11.67-10-21.33"/>
		<path class="st2" d="M387.06,188.36c0,0,18.67,2.33,27-0.83c8.33-3.17,9.33-2.5,17.33-4.17c8-1.67,18.33-4,21.17-6.5"/>
		<path class="st2" d="M483.23,170.53c0,0-2.83,1.67,2.33,4.5c5.17,2.83,9.17,6.33,10.17,9"/>
		<path class="st2" d="M544.89,271.19c0,0,3,1,10.33-4.33c7.33-5.33,16.67-11.67,20.67-18.67"/>
		<path class="st2" d="M661.23,239.86c0,0,0.33,3-4,10.33c-4.33,7.33-3.33,10-5.67,15.67c-2.33,5.67-2.33,9-7.67,16.33
			c-5.33,7.33-10,10.33-12.33,15.33c-2.33,5,0,8.33-4,11.33s-22,16.67-27.33,23c-5.33,6.33-7,13.33-12.33,17
			c-5.33,3.67-9.67,5.67-16.33,11.33c-6.67,5.67-9.75,7.13-19.33,11.33c-14.83,6.5-15.83,37-15.83,37"/>
		<path class="st2" d="M674.23,248.86c0,0-0.33,1.67-1,9.67c-0.67,8-0.67,15-3.67,22.33c-3,7.33-6.33,10.33-9.67,16.33
			s-4.67,14-3.67,19.67c1,5.67,3,4.67,5.33,11.33c2.33,6.67-0.33,14.67,5,16.33c5.33,1.67,6.33,1,10.33,7.33
			c4,6.33,4.67,11.67,7,16.67s2,8.33,5,13.33s1.33,9-0.67,19s-2,19.67-1.67,25.33c0.33,5.67,2.67,14,6.33,19s13.67,0.67,14.67,13.33
			s5,21.67,5,21.67"/>
		<path class="st2" d="M672.23,318.53c0,0,6,12,7,17.67c1,5.67,1,16,4,22.33s10,22,13,23.33"/>
		<path class="st2" d="M716.56,221.86c0,0-1.33-2.67,1.67-8.67s4.67-7.67,8-9.33c3.33-1.67,9.33-3.67,9.33-3.67"/>
		<path class="st2" d="M382.23,36.86c0,0-1.67,0.67,6,5.33c7.67,4.67,17.67,11.33,25.33,13c7.67,1.67,10.67,2,17,3
			c6.33,1,17.67,5.67,25,8.33c7.33,2.67,6.33,0.33,15,4.33c8.67,4,18.33,5.33,21,10c2.67,4.67,14,12,14.33,17.33
			c0.33,5.33,2.33,13.33,7,17.67c4.67,4.33,5.67,5.67,11,6.67s7.67,1,10.67,0.33c3-0.67,11,0.33,13.67,1"/>
		<polygon id="chester" class="st4" points="433.84,303.13 435.39,298.97 437.46,294.81 440.05,290.65 443.71,285.96 447.36,281.25 
			448.4,280.24 451.01,277.64 455.17,273.99 459.86,269.83 465.07,265.64 469.22,263.58 476.49,260.44 476.49,259.93 482.24,257.83 
			487.95,256.28 494.2,254.72 494.2,252.63 494.2,251.07 495.25,249.52 495.25,247.96 494.2,246.92 492.65,245.86 492.65,244.82 
			493.16,243.81 493.16,243.27 494.2,241.71 495.25,240.15 495.25,239.11 494.71,238.06 493.69,237.01 498.36,233.9 496.81,232.35 
			498.36,231.3 498.9,231.81 499.4,231.81 499.91,232.35 503.06,230.25 502.52,227.14 503.06,226.1 506.71,223.49 507.72,222.45 
			507.21,220.89 507.72,220.39 508.77,221.94 511.91,219.84 510.33,217.24 513.47,215.68 512.42,214.13 514.52,212.58 513.47,210.99 
			515.53,209.97 517.12,214.13 519.18,212.58 517.63,208.93 521.78,206.32 521.28,205.28 519.72,203.18 520.23,202.67 522.83,201.12 
			525.43,199.57 527.53,197.97 528.54,197.47 538.44,191.21 548.35,184.96 549.36,186.01 549.9,185.5 549.9,184.96 550.41,183.41 
			550.95,181.85 549.9,179.76 549.36,178.75 548.35,179.25 547.81,179.25 545.2,179.25 545.2,178.75 545.2,178.2 545.74,177.7 
			553.01,169.89 556.67,165.73 558.76,163.63 561.87,161.03 561.36,159.48 560.32,157.38 559.26,155.32 560.82,154.27 562.91,152.72 
			563.42,152.72 570.72,147.51 573.33,146.46 574.34,145.42 577.48,142.81 575.39,140.21 566.03,146.46 556.16,129.29 549.9,132.41 
			548.86,130.31 543.15,133.45 543.15,130.31 540.54,129.29 541.05,126.7 537.94,124.6 536.89,122.5 537.94,119.9 540.54,118.89 
			541.05,116.28 536.35,114.19 530.13,115.74 523.34,111.59 522.83,107.94 525.43,103.78 526.48,101.17 525.43,99.62 521.78,99.62 
			519.72,105.33 518.13,105.88 516.57,104.82 516.57,96.47 512.42,92.86 510.33,90.26 507.72,85.06 506.17,79.3 504.61,76.71 
			504.11,75.65 503.06,75.65 502.01,76.2 502.52,77.25 502.52,79.3 502.52,80.36 501.5,81.91 500.96,81.91 499.91,81.91 498.36,81.4 
			497.31,80.36 497.31,78.26 495.75,75.65 493.16,70.45 490.55,64.23 489.51,63.19 489,62.64 487.95,62.13 486.39,63.19 486.39,64.23 
			486.9,65.25 487.45,66.84 487.95,67.34 486.9,68.39 485.35,68.9 484.3,68.9 482.74,67.34 482.24,66.29 478.59,64.23 474.94,63.19 
			472.34,61.63 469.73,60.58 466.08,59.03 464.02,59.03 462.47,59.03 461.42,60.58 458.27,62.64 457.26,63.19 456.72,62.64 
			454.66,61.63 454.12,61.63 442.15,70.45 431.74,77.75 427.59,80.36 426.03,81.91 400,104.28 396.35,107.94 390.61,112.63 
			381.25,118.34 377.09,120.44 370.84,124.09 367.18,126.15 367.18,127.71 367.73,131.35 369.28,140.21 369.28,145.93 369.79,156.33 
			369.79,159.98 364.58,169.34 362.52,173 359.92,177.7 359.92,178.75 356.78,186.01 351.57,194.86 351.57,196.96 351.07,197.97 
			350.56,199.57 350.01,201.12 350.01,202.67 350.01,204.23 351.57,207.88 353.67,209.97 354.17,210.99 354.17,212.03 353.67,212.58 
			353.16,212.58 352.11,212.58 350.56,213.59 350.56,214.13 350.01,214.13 349.51,214.13 348.46,213.59 347.96,214.13 348.46,214.64 
			348.97,215.68 348.97,226.1 349.51,226.6 351.07,228.19 351.57,229.75 351.57,230.79 351.07,233.4 351.07,235.46 350.56,237.01 
			352.11,238.06 352.11,239.62 352.11,240.15 351.07,240.66 350.56,241.2 350.01,241.71 348.97,241.71 348.46,241.2 347.96,240.15 
			346.91,239.62 346.36,240.15 345.86,241.2 344.81,243.27 344.31,249.01 343.77,250.02 343.26,250.02 341.7,249.52 341.16,249.01 
			340.15,249.52 339.61,250.57 339.61,253.17 340.65,257.32 340.65,259.42 340.65,259.93 339.61,260.44 338.56,260.98 338.56,263.03 
			338.05,263.58 336.5,265.64 337,267.23 337,269.29 335.45,271.38 334.4,273.99 331.8,277.1 330.75,280.24 329.74,282.84 
			328.69,284.4 327.64,284.9 326.09,285.96 326.09,287.51 325.54,288.55 324.53,289.61 324.53,291.66 324.53,292.71 323.48,293.76 
			319.33,294.27 317.74,295.32 317.74,297.92 316.73,301.06 315.14,302.07 313.59,302.07 311.52,302.07 311.52,303.66 311.52,304.68 
			312.53,305.72 313.59,306.27 313.59,308.33 312.53,309.88 310.47,311.47 308.38,310.93 307.33,309.88 307.87,308.87 307.87,307.28 
			306.82,306.27 304.73,306.27 304.73,307.82 305.27,309.37 305.27,311.47 303.72,312.49 302.66,311.47 301.11,310.43 300.07,310.43 
			298.51,311.47 297.97,313.53 343.26,312.49 426.03,310.93 431.68,310.93 431.77,310.73 432.25,307.28 "/>
		<path  class="hightlight" d="M451.91,65.17c1.29,0.49,2.52,0.95,3.65,1.36c7.33,2.67,6.33,0.33,15,4.33
			c8.67,4,18.33,5.33,21,10c2.67,4.67,14,12,14.33,17.33c0.33,5.33,2.33,13.33,7,17.67c4.67,4.33,5.67,5.67,11,6.67
			s8.86,0.84,11.86,0.17"/>
		<path class="hightlight two" d="M494.07,240.11c-1.72,0.17-2.33,0.23-3.93,0.16c-5.75-0.25-9.75-1.75-18,1
			s-10.25,4.75-16.5,7.25s-21.25,2.75-28.25,4.5s-10.75,3-19.5,7.25s-13.5,2.25-21.25,3s-12,2.5-23.25,6.5s-9.75,5.5-17,13.5
			s-8.75,14.5-8.5,22c0.11,3.32-1.1,5.46-2.96,7.1"/>
	</svg>